<svg width="16" height="16" viewBox="0 0 16 16" fill="none" xmlns="http://www.w3.org/2000/svg">
<path fill-rule="evenodd" clip-rule="evenodd" d="M0 8C0 12.4183 3.58172 16 8 16C12.4183 16 16 12.4183 16 8C16 3.58172 12.4183 0 8 0C3.58172 0 0 3.58172 0 8ZM15 8C15 11.866 11.866 15 8 15C4.13401 15 1 11.866 1 8C1 4.13401 4.13401 1 8 1C11.866 1 15 4.13401 15 8Z" fill="#D5D5D5"/>
<path fill-rule="evenodd" clip-rule="evenodd" d="M10.3955 5L8 7.39571L5.60407 5L5 5.60429L7.3955 7.99979L5 10.3955L5.60407 11L8 8.60429L10.3955 11L11 10.3955L8.60429 7.99979L11 5.60429L10.3955 5Z" fill="#D5D5D5"/>
</svg>
