<svg width="32" height="31" viewBox="0 0 32 31" fill="none" xmlns="http://www.w3.org/2000/svg">
<path fill-rule="evenodd" clip-rule="evenodd" d="M9.0527 30.5625C6.78889 31.7664 4.88198 30.3666 5.31456 27.8146L6.61378 20.1512C6.62194 20.1017 6.56036 19.9095 6.52474 19.8743L1.02141 14.4476C-0.810565 12.6417 -0.0841577 10.375 2.44899 10.002L10.0551 8.88436C10.1048 8.87686 10.2666 8.75827 10.2881 8.71323L13.6894 1.74115C14.8217 -0.579631 17.1775 -0.581132 18.3098 1.74115L21.7118 8.71323C21.734 8.75827 21.8958 8.87686 21.9448 8.88436L29.5509 10.002C32.0826 10.375 32.8112 12.6402 30.9792 14.4476L25.4752 19.8743C25.4395 19.9095 25.378 20.1024 25.3861 20.1512L26.6853 27.8146C27.1179 30.3651 25.2125 31.7671 22.9465 30.5625L16.1439 26.9439C16.0994 26.9207 15.8998 26.9207 15.856 26.9439L9.0527 30.5625Z" fill="#D5D5D5"/>
</svg>
