<svg width="32" height="31" viewBox="0 0 32 31" fill="none" xmlns="http://www.w3.org/2000/svg">
<path fill-rule="evenodd" clip-rule="evenodd" d="M16.0553 0C16.9273 0 17.7433 0.569566 18.3093 1.73144L21.7123 8.70578C21.7343 8.75126 21.8953 8.87013 21.9453 8.87737L29.5513 9.99479C32.0823 10.368 32.8113 12.6338 30.9793 14.4428L25.4753 19.8707C25.4393 19.9059 25.3783 20.0992 25.3863 20.1477L26.6853 27.8136C27.1183 30.3648 25.2123 31.7675 22.9463 30.5622L16.1443 26.9422C16.0993 26.9195 15.9003 26.9195 15.8563 26.9422L9.05326 30.5622C6.78926 31.7665 4.88225 30.3668 5.31425 27.8136L6.61425 20.1477C6.62225 20.0981 6.56025 19.9059 6.52525 19.8707L1.02125 14.4428C-0.810756 12.6359 -0.0837548 10.368 2.44925 9.99479L10.0553 8.87737C10.1053 8.87013 10.2663 8.75126 10.2883 8.70578L13.6893 1.73144C14.2553 0.570599 15.1833 0 16.0553 0Z" fill="#D5D5D5"/>
<mask id="mask0" mask-type="alpha" maskUnits="userSpaceOnUse" x="0" y="0" width="16" height="31">
<path fill-rule="evenodd" clip-rule="evenodd" d="M13.6431 1.73041L10.2527 8.70375C10.2307 8.75027 10.0693 8.86914 10.0204 8.87638L2.44037 9.99381C-0.0820096 10.367 -0.808525 12.6339 1.01723 14.4418L6.50248 19.8708C6.53835 19.9059 6.60014 20.0982 6.59018 20.1478L5.2966 27.8137C4.86507 30.3639 6.76358 31.7676 9.02286 30.5624L15.8061 26.9707C15.83 26.9583 15.8884 26.9248 15.9522 26.9248L16 1.40193e-06C15.132 -0.0010323 14.2071 0.56957 13.6431 1.73041Z" fill="white"/>
</mask>
<g mask="url(#mask0)">
<path fill-rule="evenodd" clip-rule="evenodd" d="M-5 36.1667H37V-5.16667H-5V36.1667Z" fill="#FFDA00"/>
</g>
</svg>
